<svg id="Layer_1" data-name="Layer 1" xmlns="http://www.w3.org/2000/svg" viewBox="0 0 585.7 64.51">
   <defs>
      <style>.cls-1{fill:#ffc200;}</style>
   </defs>
   <title>TexasTribuneLogo_BUGNameplate</title>
   <path d="M84.94,10.23V56.08H74.63V10.23H64.49V1.16H95v9.07Z"/>
   <path d="M120.08,56.08V33.57H108.62V56.08H98.39V1.16h10.23V24.41h11.46V1.16h10.31V56.08Z"/>
   <path d="M136.78,56.08V1.16H163V10H147V23.59h11.05v8.08H147V46.93h16v9.15Z"/>
   <path d="M198.62,10.23V56.08H188.31V10.23H178.17V1.16h30.51v9.07Z"/>
   <path d="M213.1,56.08V1.16h26.23V10h-16V23.59h11v8.08h-11V46.93h16v9.15Z"/>
   <path d="M265.89,56.08l-6.44-19-7,19h-10l11.29-27.71L243.12,1.16h10.73l6,19,6.59-19h10.07l-11,26.39,11.05,28.53Z"/>
   <path d="M301.7,56.08l-1.81-10.8h-9.73l-2,10.8h-9.57L289.66,1.16h11.47l11,54.92ZM295.27,16l-3.71,21.2h7Z"/>
   <path d="M328.66,57.32c-9.4,0-15.25-5.61-15.25-14.19V39.34h9.4v3.22c0,4,1.9,6.26,5.61,6.26s5.44-2.14,5.44-5.52c0-4.37-2.8-7.34-8.25-11.38-5.6-4-11.71-9.49-11.71-17.15C313.9,6.85,319,0,328.91,0c8.66,0,14.43,5.94,14.43,14.1v3.55H334v-3.3c0-3.38-1.72-5.85-5.19-5.85a4.63,4.63,0,0,0-4.95,4.94c0,4.62,2.72,7,8.82,11.47,6.52,4.86,11.14,9.81,11.14,17.23C343.84,51,337.74,57.32,328.66,57.32Z"/>
   <path d="M377.84,10.23V56.08H367.53V10.23H357.38V1.16H387.9v9.07Z"/>
   <path d="M417.57,56.41c-4.05,0-5.61-3.3-5.61-8.08V38c0-2.56-1.32-4.7-4.21-4.7h-5.36V56.08H392.17V1.16h16.9c7.51,0,12.54,4.29,12.54,12v7.76c0,4.12-1.9,7.17-6.19,8.49a8.42,8.42,0,0,1,6.35,8.33V47.75a7.69,7.69,0,0,0,2,5.61v3Zm-5.94-42.88c0-2.48-1.07-4-3.63-4h-5.61V25.73h5.2c2.64,0,4-1.4,4-4.37Z"/>
   <path d="M429.8,56.08V1.16H440V56.08Z"/>
   <path d="M465.59,56.08H448.27V1.16h17.16c7.5,0,12.12,4,12.12,11.62v5.94c0,4.7-1.81,8.25-6.51,9.24,4.95,1.32,6.76,4.7,6.76,9.32v7.17C477.8,52.12,473.1,56.08,465.59,56.08Zm2.15-42.55c0-2.48-1.08-4-3.63-4h-5.53V24.66h5.12c2.63,0,4-1.4,4-4.29Zm.16,23c0-2.89-1.4-4.37-4-4.37h-5.28v15.5h5.78c2.55,0,3.54-1.4,3.54-4Z"/>
   <path d="M499.34,57.32c-8.9,0-15.5-5.69-15.5-13.94V1.16h10.39V43.38c0,3.22,1.81,5,5.11,5s5.2-1.81,5.2-5V1.16h10V43.38C514.52,51.63,508.25,57.32,499.34,57.32Z"/>
   <path d="M544.66,56.08,534,32.66l-3.87-8.74V56.08h-9.4V1.16h8.82L539.71,25l3.63,8.74V1.16h9.24V56.08Z"/>
   <path d="M559.48,56.08V1.16H585.7V10h-16V23.59h11v8.08h-11V46.93h16v9.15Z"/>
   <path class="cls-1" d="M0,.6V64.51l12.85-8h43V.6ZM40,45.23,27.78,37.17,15.54,45.23,19.42,31.1,8,22l14.63-.68L27.78,7.56,33,21.27,47.58,22,36.14,31.1Z"/>
</svg>
