<svg xmlns="http://www.w3.org/2000/svg" viewBox="0 0 360 360"><path d="M218.84 234.11l-55.13-43.05a5.535 5.535 0 0 1-2.13-4.36V85.04c0-3.05 2.47-5.53 5.53-5.53h22.11c3.05 0 5.53 2.47 5.53 5.53v85.49c0 1.7.78 3.31 2.13 4.36l42.37 33.09a5.524 5.524 0 0 1 .95 7.76l-13.61 17.43a5.528 5.528 0 0 1-7.75.94z"/><path d="M180 360C80.75 360 0 279.25 0 180S80.75 0 180 0s180 80.75 180 180-80.75 180-180 180zm0-326.83C99.04 33.17 33.17 99.03 33.17 180S99.04 326.83 180 326.83 326.83 260.96 326.83 180 260.97 33.17 180 33.17z"/></svg>