<svg xmlns="http://www.w3.org/2000/svg" viewBox="0 0 360 360"><path d="M172.19 288.73c4.31 4.31 11.31 4.31 15.62 0l97.48-97.48a6.162 6.162 0 000-8.72L266 162.19a6.162 6.162 0 00-8.72 0l-42.65 26.19V8.72c0-4.81-3.9-8.72-8.72-8.72h-51.84c-4.81 0-8.72 3.9-8.72 8.72v179.67L102.7 162.2a6.162 6.162 0 00-8.72 0l-19.29 20.34a6.162 6.162 0 000 8.72l97.5 97.47z"/><path d="M353.45 253.09h-96.6l-58.98 58.96c-4.78 4.78-11.13 7.4-17.88 7.4-6.75 0-13.1-2.63-17.88-7.4l-58.98-58.96H5.55c-3.4 0-6.16 2.76-6.16 6.16v94.58c0 3.4 2.76 6.16 6.16 6.16h347.91c3.4 0 6.16-2.76 6.16-6.16v-94.58c0-3.4-2.76-6.16-6.17-6.16zm-70.46 86.05c-8.2 0-14.84-6.65-14.84-14.84 0-8.2 6.65-14.84 14.84-14.84 8.2 0 14.84 6.65 14.84 14.84s-6.65 14.84-14.84 14.84zm42.41 0c-8.2 0-14.84-6.65-14.84-14.84 0-8.2 6.65-14.84 14.84-14.84 8.2 0 14.84 6.65 14.84 14.84s-6.64 14.84-14.84 14.84z"/></svg>