<svg xmlns="http://www.w3.org/2000/svg" width="208" height="23" fill="none"><path fill="#222" d="M8.11 20.836 4.637 8.605h-.104c.162 2.083.244 3.701.244 4.855v7.376H.71V3.854h6.11l3.543 12.057h.092L13.93 3.854h6.121v16.982h-4.216V13.39c0-.387.004-.817.012-1.289.015-.472.07-1.63.162-3.473h-.104l-3.427 12.208H8.11ZM33.79 20.836H23.71V3.854h10.08v3.682h-5.493v2.672h5.087v3.682h-5.087v3.206h5.494v3.74ZM44.163 20.836 40.69 8.605h-.104c.162 2.083.244 3.701.244 4.855v7.376h-4.066V3.854h6.11l3.542 12.057h.093l3.473-12.057h6.121v16.982h-4.216V13.39c0-.387.004-.817.012-1.289.015-.472.07-1.63.162-3.473h-.104L48.53 20.836h-4.367ZM59.762 3.854h5.924c2.307 0 4.018.345 5.133 1.034 1.123.682 1.685 1.746 1.685 3.194 0 .953-.244 1.766-.732 2.44a3.264 3.264 0 0 1-1.928 1.3v.117c1.053.278 1.816.743 2.288 1.393.472.65.709 1.495.709 2.532 0 1.541-.581 2.757-1.743 3.648-1.153.882-2.73 1.324-4.727 1.324h-6.609V3.854Zm4.588 6.516h1.382c.658 0 1.165-.135 1.522-.406.364-.271.546-.674.546-1.208 0-.952-.72-1.429-2.16-1.429h-1.29v3.043Zm0 3.357v3.566h1.614c1.433 0 2.15-.604 2.15-1.812 0-.565-.194-.999-.582-1.3-.379-.303-.933-.454-1.66-.454H64.35ZM85.873 20.836H75.79V3.854h10.082v3.682h-5.494v2.672h5.087v3.682h-5.087v3.206h5.493v3.74ZM93.434 14.656v6.18h-4.588V3.854h5.564c4.615 0 6.922 1.673 6.922 5.018 0 1.967-.96 3.489-2.88 4.565l4.948 7.399h-5.204l-3.6-6.18h-1.162Zm0-3.45h.86c1.602 0 2.404-.708 2.404-2.125 0-1.169-.786-1.754-2.358-1.754h-.906v3.88Z"/><path fill="#EF3F3F" d="M131.251 7.624c0 6.636-7.645 12.865-11.999 14.69l-.297.123-.392-.164c-4.462-1.898-11.9-7.875-11.9-15.071 0-1.613.786-3.194 2.051-4.425a7.033 7.033 0 0 1 2.283-1.487 7.183 7.183 0 0 1 2.695-.52c.923 0 1.838.177 2.692.52a7.04 7.04 0 0 1 2.281 1.487l.285.277.283-.277a7.096 7.096 0 0 1 3.603-1.875 7.213 7.213 0 0 1 4.066.39 7.007 7.007 0 0 1 3.159 2.525 6.727 6.727 0 0 1 1.185 3.807c0 1.356.005-6.636.005 0Z"/><path fill="#222" d="M153.244 11.985c0 2.834-.782 5.018-2.346 6.55-1.557 1.534-3.748 2.3-6.574 2.3h-5.494V3.856h5.877c2.726 0 4.828.696 6.307 2.09 1.487 1.394 2.23 3.407 2.23 6.04Zm-4.762.163c0-1.557-.31-2.71-.929-3.462-.612-.75-1.545-1.126-2.8-1.126h-1.335v9.512h1.022c1.394 0 2.416-.402 3.066-1.208.651-.813.976-2.052.976-3.716ZM160.887 14.656v6.18h-4.588V3.854h5.563c4.615 0 6.923 1.673 6.923 5.018 0 1.967-.96 3.489-2.881 4.565l4.948 7.399h-5.203l-3.601-6.18h-1.161Zm0-3.45h.859c1.603 0 2.405-.708 2.405-2.125 0-1.169-.786-1.754-2.358-1.754h-.906v3.88ZM172.397 20.836V3.854h4.611v16.982h-4.611ZM190.226 3.854h5.134l-5.564 16.982h-5.401l-5.54-16.982h5.157l2.312 8.607c.48 1.913.743 3.245.789 3.996.055-.542.163-1.22.326-2.033.162-.813.305-1.452.429-1.916l2.358-8.654ZM207.289 20.836h-10.082V3.854h10.082v3.682h-5.494v2.672h5.087v3.682h-5.087v3.206h5.494v3.74Z"/></svg>