<?xml version="1.0" encoding="utf-8"?>
<!-- Generator: Adobe Illustrator 20.0.0, SVG Export Plug-In . SVG Version: 6.00 Build 0)  -->
<!DOCTYPE svg PUBLIC "-//W3C//DTD SVG 1.1//EN" "http://www.w3.org/Graphics/SVG/1.1/DTD/svg11.dtd">
<svg version="1.1" xmlns="http://www.w3.org/2000/svg" xmlns:xlink="http://www.w3.org/1999/xlink" x="0px" y="0px"
	 viewBox="0 0 202.3 14.6" style="enable-background:new 0 0 202.3 14.6;" xml:space="preserve">
<style type="text/css">
	.st0{clip-path:url(#SVGID_2_);}
	.st1{opacity:0.9;clip-path:url(#SVGID_2_);fill:url(#SVGID_3_);}
	.st2{opacity:0.3;fill:#282828;}
	.st3{opacity:0.3;}
	.st4{opacity:0.9;clip-path:url(#SVGID_5_);fill:url(#SVGID_6_);}
	.st5{opacity:0.1;fill:#231F20;}
	.st6{fill:#EAE9E6;}
	.st7{fill:#282828;}
	.st8{fill:#FAB818;}
	.st9{fill:#F0EFEF;}
	.st10{fill:#FFFFFF;}
	.st11{fill:#39393B;}
	.st12{fill:#333232;}
	.st13{fill:#078A8F;}
	.st14{fill:#231F20;}
	.st15{fill:#088A90;}
	.st16{fill:none;stroke:#FDC20F;stroke-width:1.0871;stroke-miterlimit:10;}
	.st17{fill:#FAC019;}
	.st18{fill:#161616;}
	.st19{fill:#F2F2F2;}
	.st20{fill:#FDC20F;}
	.st21{fill:#888888;}
	.st22{fill:none;stroke:#282827;stroke-width:0.5;stroke-miterlimit:10;}
	.st23{fill:#282827;}
	.st24{fill:#FDC010;}
	.st25{fill:#717071;}
	.st26{opacity:0.2;clip-path:url(#SVGID_8_);fill:#808285;}
	.st27{clip-path:url(#SVGID_8_);fill:none;stroke:#FFFFFF;stroke-width:2;stroke-miterlimit:10;}
	.st28{fill:none;stroke:#FAB818;stroke-miterlimit:10;}
	.st29{fill:none;stroke:#9CCEC8;stroke-width:2;stroke-miterlimit:10;}
	.st30{opacity:0.2;fill:none;stroke:#808285;stroke-width:0.75;stroke-miterlimit:10;}
	.st31{fill:#121820;}
	.st32{fill:#231F20;stroke:#282827;stroke-width:0.5;stroke-miterlimit:10;}
	.st33{fill:none;stroke:#FEC20F;stroke-width:2;stroke-miterlimit:10;}
</style>
<g id="Layer_1">
	<g>
		<g>
			<path class="st10" d="M4.5,10.3L3.9,8.6H1.6L1,10.3H0l2.2-6h1.1l2.2,6H4.5z M3.7,7.8L3.1,6.1C3.1,6,3,5.9,2.9,5.6
				C2.8,5.4,2.8,5.2,2.8,5.1C2.7,5.4,2.6,5.8,2.4,6.2L1.9,7.8H3.7z"/>
			<path class="st10" d="M15.5,6.1c0,0.6-0.2,1.1-0.6,1.4c-0.4,0.3-1,0.5-1.8,0.5h-0.6v2.2h-1v-6h1.7c0.7,0,1.3,0.2,1.7,0.5
				S15.5,5.5,15.5,6.1z M12.5,7.2H13c0.5,0,0.9-0.1,1.1-0.3c0.2-0.2,0.4-0.4,0.4-0.8c0-0.3-0.1-0.6-0.3-0.8c-0.2-0.2-0.5-0.3-1-0.3
				h-0.7V7.2z"/>
			<path class="st10" d="M18.5,7.9v2.4h-1v-6h1.7c0.8,0,1.3,0.1,1.7,0.4C21.3,5,21.5,5.4,21.5,6c0,0.7-0.4,1.3-1.2,1.6l1.7,2.7h-1.1
				l-1.4-2.4H18.5z M18.5,7.1h0.7c0.5,0,0.8-0.1,1-0.3c0.2-0.2,0.3-0.4,0.3-0.8c0-0.3-0.1-0.6-0.3-0.7c-0.2-0.1-0.6-0.2-1-0.2h-0.6
				V7.1z"/>
			<path class="st10" d="M29.2,7.3c0,1-0.2,1.7-0.7,2.3c-0.5,0.5-1.2,0.8-2.1,0.8c-0.9,0-1.6-0.3-2.1-0.8c-0.5-0.5-0.7-1.3-0.7-2.3
				s0.2-1.8,0.7-2.3c0.5-0.5,1.2-0.8,2.1-0.8c0.9,0,1.6,0.3,2.1,0.8C28.9,5.5,29.2,6.3,29.2,7.3z M24.6,7.3C24.6,8,24.7,8.6,25,9
				c0.3,0.4,0.7,0.6,1.3,0.6c0.6,0,1-0.2,1.3-0.6C28,8.6,28.1,8,28.1,7.3c0-0.7-0.1-1.3-0.4-1.7C27.4,5.2,27,5,26.4,5
				c-0.6,0-1,0.2-1.3,0.6C24.7,6,24.6,6.5,24.6,7.3z"/>
			<path class="st10" d="M36.3,7.2c0,1-0.3,1.7-0.8,2.3c-0.5,0.5-1.3,0.8-2.4,0.8h-1.7v-6h1.9c1,0,1.7,0.3,2.2,0.8
				C36,5.6,36.3,6.3,36.3,7.2z M35.3,7.3c0-1.4-0.7-2.2-2-2.2h-0.8v4.4h0.7C34.5,9.5,35.3,8.7,35.3,7.3z"/>
			<path class="st10" d="M43.2,4.3v3.9c0,0.4-0.1,0.8-0.3,1.2c-0.2,0.3-0.5,0.6-0.8,0.8c-0.4,0.2-0.8,0.3-1.3,0.3
				c-0.7,0-1.3-0.2-1.7-0.6c-0.4-0.4-0.6-0.9-0.6-1.6V4.3h1v3.8c0,0.5,0.1,0.9,0.3,1.1s0.6,0.4,1.1,0.4c0.9,0,1.4-0.5,1.4-1.5V4.3
				H43.2z"/>
			<path class="st10" d="M48.3,5c-0.6,0-1,0.2-1.3,0.6c-0.3,0.4-0.5,1-0.5,1.7c0,0.7,0.2,1.3,0.5,1.7s0.8,0.6,1.3,0.6
				c0.3,0,0.5,0,0.7-0.1s0.5-0.1,0.7-0.2v0.8c-0.5,0.2-1,0.3-1.6,0.3c-0.9,0-1.6-0.3-2-0.8c-0.5-0.5-0.7-1.3-0.7-2.3
				c0-0.6,0.1-1.2,0.3-1.6s0.6-0.8,1-1.1c0.4-0.2,0.9-0.4,1.5-0.4c0.6,0,1.2,0.1,1.7,0.4l-0.4,0.8c-0.2-0.1-0.4-0.2-0.6-0.3
				C48.8,5.1,48.5,5,48.3,5z"/>
			<path class="st10" d="M54.4,10.3h-1V5.1h-1.8V4.3h4.5v0.8h-1.8V10.3z"/>
			<path class="st10" d="M67.6,7.3c0,1-0.2,1.7-0.7,2.3c-0.5,0.5-1.2,0.8-2.1,0.8c-0.9,0-1.6-0.3-2.1-0.8c-0.5-0.5-0.7-1.3-0.7-2.3
				s0.2-1.8,0.7-2.3c0.5-0.5,1.2-0.8,2.1-0.8c0.9,0,1.6,0.3,2.1,0.8C67.3,5.5,67.6,6.3,67.6,7.3z M63,7.3C63,8,63.1,8.6,63.4,9
				c0.3,0.4,0.7,0.6,1.3,0.6c0.6,0,1-0.2,1.3-0.6c0.3-0.4,0.4-0.9,0.4-1.7c0-0.7-0.1-1.3-0.4-1.7C65.8,5.2,65.3,5,64.8,5
				c-0.6,0-1,0.2-1.3,0.6C63.1,6,63,6.5,63,7.3z"/>
			<path class="st10" d="M70.8,10.3h-1v-6h3.4v0.8h-2.4V7H73v0.8h-2.3V10.3z"/>
		</g>
		<g>
			<g>
				<g>
					<path class="st10" d="M98.3,3.4v9.5h-2.1V3.4h-2.1V1.5h6.3v1.9H98.3z"/>
					<path class="st10" d="M105.6,12.9V8.2h-2.4v4.7h-2.1V1.5h2.1v4.8h2.4V1.5h2.1v11.4H105.6z"/>
					<path class="st10" d="M109.1,12.9V1.5h5.4v1.8h-3.3v2.8h2.3v1.7h-2.3V11h3.3v1.9H109.1z"/>
					<path class="st10" d="M121.9,3.4v9.5h-2.1V3.4h-2.1V1.5h6.3v1.9H121.9z"/>
					<path class="st10" d="M124.9,12.9V1.5h5.4v1.8h-3.3v2.8h2.3v1.7h-2.3V11h3.3v1.9H124.9z"/>
					<path class="st10" d="M135.9,12.9L134.6,9l-1.5,3.9H131l2.3-5.8l-2.2-5.7h2.2l1.3,3.9l1.4-3.9h2.1L135.8,7l2.3,5.9H135.9z"/>
					<path class="st10" d="M143.3,12.9l-0.4-2.2h-2l-0.4,2.2h-2l2.3-11.4h2.4l2.3,11.4H143.3z M142,4.6L141.2,9h1.5L142,4.6z"/>
					<path class="st10" d="M148.9,13.2c-2,0-3.2-1.2-3.2-2.9V9.4h2v0.7c0,0.8,0.4,1.3,1.2,1.3c0.8,0,1.1-0.4,1.1-1.1
						c0-0.9-0.6-1.5-1.7-2.4c-1.2-0.8-2.4-2-2.4-3.6c0-1.6,1.1-3.1,3.1-3.1c1.8,0,3,1.2,3,2.9v0.7h-1.9V4.2c0-0.7-0.4-1.2-1.1-1.2
						c-0.6,0-1,0.4-1,1c0,1,0.6,1.5,1.8,2.4c1.4,1,2.3,2,2.3,3.6C152.1,11.8,150.8,13.2,148.9,13.2z"/>
					<path class="st10" d="M159.2,3.4v9.5H157V3.4h-2.1V1.5h6.3v1.9H159.2z"/>
					<path class="st10" d="M167.4,13c-0.8,0-1.2-0.7-1.2-1.7V9.1c0-0.5-0.3-1-0.9-1h-1.1v4.7h-2.1V1.5h3.5c1.6,0,2.6,0.9,2.6,2.5
						v1.6c0,0.9-0.4,1.5-1.3,1.8c0.9,0.2,1.3,1,1.3,1.7v2.1c0,0.5,0.2,0.9,0.4,1.2V13H167.4z M166.2,4.1c0-0.5-0.2-0.8-0.8-0.8h-1.2
						v3.4h1.1c0.5,0,0.8-0.3,0.8-0.9V4.1z"/>
					<path class="st10" d="M169.9,12.9V1.5h2.1v11.4H169.9z"/>
					<path class="st10" d="M177.4,12.9h-3.6V1.5h3.6c1.6,0,2.5,0.8,2.5,2.4v1.2c0,1-0.4,1.7-1.4,1.9c1,0.3,1.4,1,1.4,1.9v1.5
						C179.9,12.1,178.9,12.9,177.4,12.9z M177.8,4.1c0-0.5-0.2-0.8-0.8-0.8h-1.1v3.1h1.1c0.5,0,0.8-0.3,0.8-0.9V4.1z M177.9,8.8
						c0-0.6-0.3-0.9-0.8-0.9h-1.1v3.2h1.2c0.5,0,0.7-0.3,0.7-0.8V8.8z"/>
					<path class="st10" d="M184.4,13.2c-1.9,0-3.2-1.2-3.2-2.9V1.5h2.2v8.8c0,0.7,0.4,1,1.1,1c0.7,0,1.1-0.4,1.1-1V1.5h2.1v8.8
						C187.5,12,186.2,13.2,184.4,13.2z"/>
					<path class="st10" d="M193.8,12.9L191.6,8l-0.8-1.8v6.7h-2V1.5h1.8l2.1,4.9l0.8,1.8V1.5h1.9v11.4H193.8z"/>
					<path class="st10" d="M196.9,12.9V1.5h5.4v1.8H199v2.8h2.3v1.7H199V11h3.3v1.9H196.9z"/>
				</g>
				<path class="st24" d="M80.7,1.4v13.3l2.7-1.7h8.9V1.4H80.7z M89,10.6L86.5,9l-2.5,1.7l0.8-2.9l-2.4-1.9l3-0.1l1.1-2.8l1.1,2.8
					l3,0.1l-2.4,1.9L89,10.6z"/>
			</g>
		</g>
	</g>
</g>
<g id="Layer_2">
</g>
</svg>
