<?xml version="1.0" encoding="utf-8"?>
<!-- Generator: Adobe Illustrator 20.0.0, SVG Export Plug-In . SVG Version: 6.00 Build 0)  -->
<!DOCTYPE svg PUBLIC "-//W3C//DTD SVG 1.1//EN" "http://www.w3.org/Graphics/SVG/1.1/DTD/svg11.dtd">
<svg version="1.1" id="Layer_1" xmlns="http://www.w3.org/2000/svg" xmlns:xlink="http://www.w3.org/1999/xlink" x="0px" y="0px"
	 viewBox="0 0 377.2 108.4" style="enable-background:new 0 0 377.2 108.4;" xml:space="preserve">
<style type="text/css">
	.st0{fill:#FFFFFF;}
	.st1{fill:#FDC010;}
</style>
<g id="Layer_1_1_">
	<g>
		<g>
			<path class="st0" d="M47.4,18.4l-14.8,64h-12l14.8-64h-8.7L29.3,7h29.4l-2.6,11.4C56.1,18.4,47.4,18.4,47.4,18.4z"/>
			<path class="st0" d="M66.3,82.4l7.2-31.2h-6.7l-7.2,31.2h-12L65,6.9h12l-7.6,32.8h6.7l7.6-32.8h11.9L78.1,82.4H66.3z"/>
			<path class="st0" d="M85.8,82.4l17.4-75.5h25.1l-2.5,10.9h-13.1l-4.8,20.6h8.7l-2.4,10.3h-8.7l-5.2,22.4h13.1l-2.6,11.2h-25V82.4
				z"/>
			<g>
				<path class="st0" d="M147.8,101.5h-20.7L149,6.9h20.7c7.3,0,14.4,4,11.5,16.3l-4.3,18.6c-1.2,5.1-4.3,9.2-9.8,11.5
					c4.4,2.6,5.7,6.2,4.5,11.5l-4.7,20.3C164.1,97.5,155.1,101.5,147.8,101.5z M157.4,64c0.7-2.8,0.1-4.1-1.8-4.1h-3.8l-6.6,28.4
					h3.8c1.9,0,3-1.1,3.7-4L157.4,64z M166.5,24.2c0.7-2.8,0-4-1.9-4h-3.8l-6.4,27.5h3.8c1.9,0,3.1-1.3,3.7-4.1L166.5,24.2z"/>
				<path class="st0" d="M172.1,101.5l21.8-94.6h15l-18.7,80.9h15.6l-3.1,13.6L172.1,101.5L172.1,101.5z"/>
				<path class="st0" d="M233.5,101.5l2.9-16.2h-8.9l-5.2,16.2h-13.6L242,6.9h17l-10.3,94.6H233.5z M244.8,32.6l-12.7,39.2h6.3
					L244.8,32.6z"/>
				<path class="st0" d="M273.2,102.9c-11.7,0-17.2-7.1-14.2-19.7l2.3-9.9h13.1l-2.6,11.1c-0.8,3.4,0.3,5.7,3.6,5.7
					c3.2,0,5.3-2.1,6.1-5.7c2-8.5,0-15.2-3.5-24.7c-3.7-8.8-8.4-21.9-5.8-32.8C275,15,283.5,5.5,296.6,5.5
					c10.2,0,15.4,7.2,12.5,19.7l-2.4,10.4h-13l2.7-11.8c0.7-3.1-0.6-4.8-3-4.8c-2.5,0-4.9,1.6-5.6,4.8c-2.5,10.9-0.1,14.8,3.6,25.3
					c4,10.6,7.8,21.9,5.2,32.9C293.3,96.8,282.7,102.9,273.2,102.9z"/>
				<path class="st0" d="M343.3,21.2l-18.5,80.2h-15l18.5-80.2h-10.9l3.3-14.3h36.9l-3.3,14.3C354.3,21.2,343.3,21.2,343.3,21.2z"/>
			</g>
			<polygon class="st1" points="7.5,101.5 106.5,101.5 108.7,91.9 7.9,99.6 			"/>
		</g>
	</g>
</g>
</svg>
