<?xml version="1.0" encoding="utf-8"?>
<!-- Generator: Adobe Illustrator 20.1.0, SVG Export Plug-In . SVG Version: 6.00 Build 0)  -->
<!DOCTYPE svg PUBLIC "-//W3C//DTD SVG 1.1//EN" "http://www.w3.org/Graphics/SVG/1.1/DTD/svg11.dtd">
<svg version="1.1" id="Layer_1" xmlns="http://www.w3.org/2000/svg" xmlns:xlink="http://www.w3.org/1999/xlink" x="0px" y="0px"
	 viewBox="0 0 336.7 53" style="enable-background:new 0 0 336.7 53;" xml:space="preserve">
<style type="text/css">
	.st0{fill:#FFFFFF;}
	.st1{fill:#232323;}
	.st2{fill:#FFC000;}
	.st3{fill:#FFC200;}
	.st4{fill:none;stroke:#FFC200;stroke-miterlimit:10;}
	.st5{fill:none;stroke:#9CCEC8;stroke-width:3;stroke-miterlimit:10;}
</style>
<g>
	<g>
		<g>
			<path class="st0" d="M21.3,6.9L13.4,41H7l7.9-34.1h-4.7l1.4-6.1h15.7l-1.4,6.1H21.3z"/>
			<path class="st0" d="M31.3,41l3.8-16.6h-3.6L27.7,41h-6.4l9.3-40.2H37l-4,17.5h3.6l4-17.5h6.3L37.7,41H31.3z"/>
			<path class="st0" d="M41.7,41L51,0.8h13.4l-1.3,5.8h-7l-2.5,11h4.7l-1.3,5.5h-4.7l-2.8,12h7l-1.4,6H41.7z"/>
			<g>
				<path class="st0" d="M74.8,51.2h-11L75.4,0.8h11c3.9,0,7.7,2.1,6.1,8.7l-2.3,9.9c-0.6,2.7-2.3,4.9-5.2,6.1
					c2.3,1.4,3,3.3,2.4,6.1L85,42.5C83.5,49,78.7,51.2,74.8,51.2z M79.9,31.2c0.3-1.5,0-2.2-1-2.2h-2l-3.5,15.1h2c1,0,1.6-0.6,2-2.1
					L79.9,31.2z M84.8,10c0.3-1.5,0-2.1-1-2.1h-2l-3.4,14.7h2c1,0,1.6-0.7,2-2.2L84.8,10z"/>
				<path class="st0" d="M87.7,51.2L99.4,0.8h8l-10,43.1h8.3l-1.7,7.3H87.7z"/>
				<path class="st0" d="M120.5,51.2l1.5-8.6h-4.7l-2.8,8.6h-7.2l17.8-50.4h9.1l-5.5,50.4H120.5z M126.5,14.5l-6.8,20.9h3.3
					L126.5,14.5z"/>
				<path class="st0" d="M141.7,51.9c-6.2,0-9.1-3.8-7.6-10.5l1.2-5.3h7l-1.4,5.9c-0.4,1.8,0.2,3,1.9,3c1.7,0,2.8-1.1,3.3-3
					c1-4.5,0-8.1-1.9-13.2c-1.9-4.7-4.5-11.7-3.1-17.5c1.5-6.3,6-11.4,13-11.4c5.4,0,8.2,3.9,6.7,10.5l-1.3,5.5h-6.9l1.5-6.3
					c0.4-1.7-0.3-2.6-1.6-2.6c-1.3,0-2.6,0.8-3,2.6c-1.3,5.8,0,7.9,1.9,13.5c2.1,5.7,4.1,11.7,2.8,17.6
					C152.3,48.7,146.7,51.9,141.7,51.9z"/>
				<path class="st0" d="M179,8.4l-9.9,42.8h-8L171,8.4h-5.8l1.8-7.6h19.7l-1.8,7.6H179z"/>
			</g>
			<polygon class="st2" points="0,51.2 52.8,51.2 54,46.1 0.2,50.2 			"/>
		</g>
	</g>
	<g>
		<g>
			<path class="st0" d="M219.2,40.3V51h-2.4V40.3h-2.4v-2.1h7.2v2.1H219.2z"/>
			<path class="st0" d="M227.4,51v-5.3h-2.7V51h-2.4V38.1h2.4v5.5h2.7v-5.5h2.4V51H227.4z"/>
			<path class="st0" d="M231.3,51V38.1h6.2v2.1h-3.8v3.2h2.6v1.9h-2.6v3.6h3.8V51H231.3z"/>
			<path class="st0" d="M245.9,40.3V51h-2.4V40.3h-2.4v-2.1h7.2v2.1H245.9z"/>
			<path class="st0" d="M249.3,51V38.1h6.2v2.1h-3.8v3.2h2.6v1.9h-2.6v3.6h3.8V51H249.3z"/>
			<path class="st0" d="M261.6,51l-1.5-4.5l-1.6,4.5h-2.3l2.7-6.5l-2.5-6.4h2.5l1.4,4.5l1.5-4.5h2.4l-2.6,6.2l2.6,6.7H261.6z"/>
			<path class="st0" d="M270.1,51l-0.4-2.5h-2.3l-0.5,2.5h-2.2l2.6-12.9h2.7l2.6,12.9H270.1z M268.5,41.6l-0.9,5h1.6L268.5,41.6z"/>
			<path class="st0" d="M276.4,51.3c-2.2,0-3.6-1.3-3.6-3.3v-0.9h2.2v0.8c0,0.9,0.4,1.5,1.3,1.5c0.9,0,1.3-0.5,1.3-1.3
				c0-1-0.7-1.7-1.9-2.7c-1.3-0.9-2.7-2.2-2.7-4c0-1.9,1.2-3.5,3.5-3.5c2,0,3.4,1.4,3.4,3.3V42h-2.2v-0.8c0-0.8-0.4-1.4-1.2-1.4
				c-0.7,0-1.2,0.4-1.2,1.2c0,1.1,0.6,1.6,2.1,2.7c1.5,1.1,2.6,2.3,2.6,4C279.9,49.8,278.5,51.3,276.4,51.3z"/>
			<path class="st0" d="M287.9,40.3V51h-2.4V40.3h-2.4v-2.1h7.2v2.1H287.9z"/>
			<path class="st0" d="M297.3,51.1c-0.9,0-1.3-0.8-1.3-1.9v-2.4c0-0.6-0.3-1.1-1-1.1h-1.3V51h-2.4V38.1h4c1.8,0,2.9,1,2.9,2.8v1.8
				c0,1-0.4,1.7-1.5,2c1,0.3,1.5,1.1,1.5,2v2.4c0,0.6,0.2,1,0.5,1.3v0.7H297.3z M295.9,41c0-0.6-0.3-0.9-0.9-0.9h-1.3v3.8h1.2
				c0.6,0,0.9-0.3,0.9-1V41z"/>
			<path class="st0" d="M300.1,51V38.1h2.4V51H300.1z"/>
			<path class="st0" d="M308.5,51h-4.1V38.1h4c1.8,0,2.8,0.9,2.8,2.7v1.4c0,1.1-0.4,1.9-1.5,2.2c1.2,0.3,1.6,1.1,1.6,2.2v1.7
				C311.4,50.1,310.3,51,308.5,51z M309,41c0-0.6-0.3-0.9-0.9-0.9h-1.3v3.5h1.2c0.6,0,0.9-0.3,0.9-1V41z M309.1,46.4
				c0-0.7-0.3-1-0.9-1h-1.2V49h1.4c0.6,0,0.8-0.3,0.8-0.9V46.4z"/>
			<path class="st0" d="M316.4,51.3c-2.1,0-3.6-1.3-3.6-3.3v-9.9h2.4V48c0,0.8,0.4,1.2,1.2,1.2c0.8,0,1.2-0.4,1.2-1.2v-9.9h2.3V48
				C320,50,318.5,51.3,316.4,51.3z"/>
			<path class="st0" d="M327.1,51l-2.5-5.5l-0.9-2.1V51h-2.2V38.1h2.1l2.4,5.6l0.9,2.1v-7.6h2.2V51H327.1z"/>
			<path class="st0" d="M330.6,51V38.1h6.2v2.1H333v3.2h2.6v1.9H333v3.6h3.8V51H330.6z"/>
		</g>
		<path class="st3" d="M199.2,38v15l3-1.9h10.1V38H199.2z M208.6,48.5l-2.9-1.9l-2.9,1.9l0.9-3.3l-2.7-2.1l3.4-0.2l1.2-3.2l1.2,3.2
			l3.4,0.2l-2.7,2.1L208.6,48.5z"/>
	</g>
	<g>
		<path class="st0" d="M205.6,31.3l-0.8-2.2h-3.1l-0.8,2.2h-1.4l3-8h1.4l3,8H205.6z M204.4,28l-0.8-2.2c-0.1-0.1-0.1-0.4-0.2-0.7
			s-0.2-0.5-0.2-0.7c-0.1,0.4-0.2,0.9-0.4,1.5l-0.7,2.1H204.4z"/>
		<path class="st0" d="M218.8,25.7c0,0.8-0.3,1.5-0.8,1.9c-0.5,0.4-1.3,0.7-2.3,0.7h-0.8v3h-1.3v-8h2.3c1,0,1.8,0.2,2.2,0.6
			C218.6,24.3,218.8,24.9,218.8,25.7z M214.9,27.2h0.7c0.7,0,1.2-0.1,1.5-0.4c0.3-0.2,0.5-0.6,0.5-1.1c0-0.5-0.1-0.8-0.4-1
			s-0.7-0.3-1.3-0.3h-0.9V27.2z"/>
		<path class="st0" d="M222.2,28.1v3.2h-1.3v-8h2.3c1,0,1.8,0.2,2.3,0.6s0.7,1,0.7,1.8c0,1-0.5,1.7-1.6,2.1l2.3,3.5h-1.5l-1.9-3.2
			H222.2z M222.2,27h0.9c0.6,0,1.1-0.1,1.3-0.3c0.3-0.2,0.4-0.6,0.4-1c0-0.5-0.1-0.8-0.4-1c-0.3-0.2-0.7-0.3-1.3-0.3h-0.9V27z"/>
		<path class="st0" d="M235.7,27.3c0,1.3-0.3,2.3-1,3s-1.6,1.1-2.8,1.1c-1.2,0-2.1-0.4-2.8-1.1c-0.6-0.7-1-1.7-1-3.1
			c0-1.3,0.3-2.3,1-3s1.6-1.1,2.8-1.1c1.2,0,2.1,0.4,2.8,1.1C235.4,25,235.7,26,235.7,27.3z M229.6,27.3c0,1,0.2,1.7,0.6,2.2
			c0.4,0.5,1,0.8,1.8,0.8c0.8,0,1.4-0.3,1.8-0.8c0.4-0.5,0.6-1.3,0.6-2.3c0-1-0.2-1.7-0.6-2.2c-0.4-0.5-1-0.8-1.8-0.8
			c-0.8,0-1.4,0.3-1.8,0.8C229.8,25.6,229.6,26.3,229.6,27.3z"/>
		<path class="st0" d="M244.5,27.2c0,1.3-0.4,2.3-1.1,3s-1.8,1-3.2,1H238v-8h2.5c1.3,0,2.3,0.3,3,1S244.5,26,244.5,27.2z
			 M243.1,27.3c0-1.9-0.9-2.9-2.7-2.9h-1.1v5.8h0.9C242.2,30.2,243.1,29.2,243.1,27.3z"/>
		<path class="st0" d="M253,23.3v5.2c0,0.6-0.1,1.1-0.4,1.6c-0.3,0.4-0.6,0.8-1.1,1c-0.5,0.2-1.1,0.4-1.7,0.4c-1,0-1.8-0.3-2.3-0.8
			c-0.6-0.5-0.8-1.2-0.8-2.2v-5.2h1.3v5.1c0,0.7,0.2,1.1,0.5,1.5s0.8,0.5,1.4,0.5c1.2,0,1.9-0.6,1.9-1.9v-5.1H253z"/>
		<path class="st0" d="M259.1,24.3c-0.8,0-1.3,0.3-1.8,0.8c-0.4,0.5-0.6,1.3-0.6,2.2c0,1,0.2,1.7,0.6,2.2s1,0.8,1.8,0.8
			c0.3,0,0.7,0,1-0.1c0.3-0.1,0.6-0.2,1-0.3v1.1c-0.6,0.2-1.3,0.4-2.1,0.4c-1.2,0-2.1-0.4-2.7-1.1c-0.6-0.7-0.9-1.7-0.9-3
			c0-0.8,0.2-1.6,0.5-2.2c0.3-0.6,0.7-1.1,1.3-1.4c0.6-0.3,1.3-0.5,2-0.5c0.8,0,1.6,0.2,2.3,0.5l-0.5,1.1c-0.3-0.1-0.6-0.2-0.9-0.3
			S259.4,24.3,259.1,24.3z"/>
		<path class="st0" d="M266.5,31.3h-1.3v-6.9h-2.4v-1.1h6v1.1h-2.4V31.3z"/>
		<path class="st0" d="M282.7,27.3c0,1.3-0.3,2.3-1,3s-1.6,1.1-2.8,1.1c-1.2,0-2.1-0.4-2.8-1.1c-0.6-0.7-1-1.7-1-3.1
			c0-1.3,0.3-2.3,1-3s1.6-1.1,2.8-1.1c1.2,0,2.1,0.4,2.8,1.1C282.4,25,282.7,26,282.7,27.3z M276.6,27.3c0,1,0.2,1.7,0.6,2.2
			c0.4,0.5,1,0.8,1.8,0.8c0.8,0,1.4-0.3,1.8-0.8c0.4-0.5,0.6-1.3,0.6-2.3c0-1-0.2-1.7-0.6-2.2c-0.4-0.5-1-0.8-1.8-0.8
			c-0.8,0-1.4,0.3-1.8,0.8C276.8,25.6,276.6,26.3,276.6,27.3z"/>
		<path class="st0" d="M286.3,31.3H285v-8h4.5v1.1h-3.2v2.5h3V28h-3V31.3z"/>
	</g>
</g>
</svg>
