<svg xmlns="http://www.w3.org/2000/svg" viewBox="0 0 360 360"><path d="M344.66 228.65l-.01-.02c-2.3-6.16-6.81-11.09-12.73-13.92l-40.91-21.4-27.72-74.26c-1.3-4.27-9.29-28.72-27.98-51.47-25.07-30.51-58.1-44.75-96.08-41.6-8.93-20.9-32.89-31.3-54.38-23.26-21.46 8.03-32.71 31.58-25.77 53.19-30.7 22.49-46.3 54.88-45.27 94.35.77 29.45 10.73 53.17 12.53 57.22l27.73 74.27-16.87 42.97c-5.46 12.56.15 27.28 12.66 32.99A25.19 25.19 0 0060.31 360c2.98 0 5.96-.53 8.83-1.61l88.47-33.02c8.8 22.38 33.94 33.67 56.56 25.22 22.62-8.44 34.21-33.44 26.19-56.11l89.51-33.41c12.99-4.86 19.63-19.41 14.79-32.42zM65.82 329.37l16.58-42.23c1.3-3.3 1.33-6.97.09-10.3l-29.76-79.71-.42-1.01c-.09-.2-9.49-20.72-10.17-46.6-.87-33.18 13.08-58.72 41.44-75.91l10.04-6.08-7.33-19.65c-2.78-7.47 1.03-15.82 8.49-18.61 1.67-.62 3.38-.92 5.06-.92 5.87 0 11.4 3.59 13.57 9.39l7.34 19.66 11.57-1.99c32.46-5.58 59.55 4.35 80.54 29.5 16.64 19.95 23.29 42.34 23.35 42.53l30.11 80.77c1.24 3.33 3.67 6.08 6.82 7.73l40.19 21.03-247.51 92.4z"/></svg>