<svg xmlns="http://www.w3.org/2000/svg" viewBox="0 0 360 360"><path d="M266.44 109.86c-.01 0-.01 0 0 0-2.2-10.83-12.76-17.82-23.59-15.62s-17.82 12.76-15.62 23.59v.01l6.97 34.3-.08.02 3.69 18.13c.55 2.71-1.2 5.35-3.9 5.9l-7.35 1.49c-6.68 1.36-21.61 8.12-33.25 20.5-14.3 15.2-19.36 33.95-15.04 55.75 1.33 6.71-2.67 13.53-9.33 15.08-6.89 1.6-13.69-2.8-15.09-9.69-7.7-37.85 7.31-63.46 21.25-78.28 10.69-11.36 24-19.62 35.1-24.23a4.992 4.992 0 0 0 2.98-5.61l-22.6-111.15-.03.01c-2.42-10.54-12.8-17.3-23.47-15.13-10.66 2.17-17.59 12.44-15.69 23.1h-.02l.1.48v.02l18.18 89.4c.38 1.88-.63 3.78-2.41 4.5-2.32.95-4.93-.45-5.43-2.91l-22.26-109.5-.02.01c-2.42-10.54-12.8-17.3-23.47-15.13-10.66 2.17-17.59 12.44-15.69 23.09h-.02l.1.49 23.97 117.91c.38 1.88-.63 3.78-2.41 4.5-2.32.95-4.93-.45-5.43-2.91l-20.1-98.79-.03.01c-2.42-10.54-12.8-17.3-23.47-15.13C62.32 46.22 55.4 56.5 57.29 67.15h-.02l.1.48v.02l21.79 107.19c.38 1.88-.63 3.78-2.41 4.5-2.32.95-4.93-.45-5.43-2.91l-11.83-58.18-.1-.49h-.02c-2.42-10.54-12.8-17.3-23.47-15.13-10.66 2.17-17.59 12.44-15.69 23.09l-.02.01 25.07 123.3c7.93 39.02 25.04 67.1 50.84 83.48 22.11 14.03 49.26 18.32 78.53 12.41.06-.01.13-.03.19-.04 44.33-9.01 74.81-24.55 93.16-47.51 19.63-24.55 25.15-56.29 16.86-97.05l-18.4-90.46zm67.14-.97c-3.5.46-6.95-1.61-8.1-5.08-9.31-28.18-20.9-63.24-75.25-76.52-4.02-.98-6.49-5.04-5.51-9.07.98-4.02 5.04-6.49 9.07-5.51 27.37 6.69 47.76 18.93 62.33 37.43 12.79 16.25 18.79 34.38 23.6 48.95 1.3 3.93-.83 8.18-4.77 9.48-.45.16-.91.26-1.37.32z"/><path d="M302.94 119.04a7.51 7.51 0 0 1-8.09-5.05c-.22-.64-.45-1.34-.69-2.09-4.88-14.82-15.03-45.66-51.1-54.18-4.03-.95-6.53-4.99-5.58-9.03.95-4.03 4.99-6.53 9.03-5.58 44.24 10.45 57.07 49.42 61.9 64.09.24.71.45 1.38.66 2a7.497 7.497 0 0 1-4.72 9.5 6.9 6.9 0 0 1-1.41.34z"/></svg>